#N canvas 561 81 797 394 12;
#X obj 96 92 metro 10000;
#X obj 98 43 tgl 19 0 empty empty empty 0 -10 0 12 #fcfcfc #000000 #000000 0 1;
#X obj 97 119 bng 19 250 50 0 empty empty empty 0 -10 0 12 #fcfcfc #000000 #000000;
#X obj 694 342 dac~;
#X obj 36 210 phasor~;
#X obj 36 234 lop~ 6000;
#X obj 36 272 *~;
#X floatatom 35 111 5 0 0 0 - - - 0;
#X obj 35 147 mtof;
#X floatatom 35 171 5 0 0 0 - - - 0;
#X obj 141 233 line 0 3;
#X floatatom 141 257 5 0 0 0 - - - 0;
#X msg 115 181 0.1 300;
#X msg 182 180 0 700;
#X obj 183 145 delay 2000;
#X obj 693 283 catch~ out;
#X obj 35 313 throw~ out;
#X floatatom 136 45 5 0 0 0 - - - 0;
#X floatatom 251 110 5 0 0 0 - - - 0;
#X obj 366 92 metro 10000;
#X obj 368 43 tgl 19 0 empty empty empty 0 -10 0 12 #fcfcfc #000000 #000000 0 1;
#X obj 367 119 bng 19 250 50 0 empty empty empty 0 -10 0 12 #fcfcfc #000000 #000000;
#X obj 306 210 phasor~;
#X obj 306 234 lop~ 6000;
#X obj 306 272 *~;
#X floatatom 305 111 5 0 0 0 - - - 0;
#X obj 305 147 mtof;
#X floatatom 305 171 5 0 0 0 - - - 0;
#X obj 411 233 line 0 3;
#X floatatom 411 257 5 0 0 0 - - - 0;
#X msg 385 181 0.1 300;
#X msg 452 180 0 700;
#X obj 453 145 delay 2000;
#X obj 305 313 throw~ out;
#X floatatom 406 45 5 0 0 0 - - - 0;
#X floatatom 521 110 5 0 0 0 - - - 0;
#X obj 103 398 metro 10000;
#X obj 105 349 tgl 19 0 empty empty empty 0 -10 0 12 #fcfcfc #000000 #000000 0 1;
#X obj 104 425 bng 19 250 50 0 empty empty empty 0 -10 0 12 #fcfcfc #000000 #000000;
#X obj 43 516 phasor~;
#X obj 43 540 lop~ 6000;
#X obj 43 578 *~;
#X floatatom 42 417 5 0 0 0 - - - 0;
#X obj 42 453 mtof;
#X floatatom 42 477 5 0 0 0 - - - 0;
#X obj 148 539 line 0 3;
#X floatatom 148 563 5 0 0 0 - - - 0;
#X msg 122 487 0.1 300;
#X msg 189 486 0 700;
#X obj 190 451 delay 2000;
#X obj 42 619 throw~ out;
#X floatatom 143 351 5 0 0 0 - - - 0;
#X floatatom 258 416 5 0 0 0 - - - 0;
#X obj 373 398 metro 10000;
#X obj 375 349 tgl 19 0 empty empty empty 0 -10 0 12 #fcfcfc #000000 #000000 0 1;
#X obj 374 425 bng 19 250 50 0 empty empty empty 0 -10 0 12 #fcfcfc #000000 #000000;
#X obj 313 516 phasor~;
#X obj 313 540 lop~ 6000;
#X obj 313 578 *~;
#X floatatom 312 417 5 0 0 0 - - - 0;
#X obj 312 453 mtof;
#X floatatom 312 477 5 0 0 0 - - - 0;
#X obj 418 539 line 0 3;
#X floatatom 418 563 5 0 0 0 - - - 0;
#X msg 392 487 0.1 300;
#X msg 459 486 0 700;
#X obj 460 451 delay 2000;
#X obj 312 619 throw~ out;
#X floatatom 413 351 5 0 0 0 - - - 0;
#X floatatom 528 416 5 0 0 0 - - - 0;
#X obj 127 705 metro 10000;
#X obj 129 656 tgl 19 0 empty empty empty 0 -10 0 12 #fcfcfc #000000 #000000 0 1;
#X obj 128 732 bng 19 250 50 0 empty empty empty 0 -10 0 12 #fcfcfc #000000 #000000;
#X obj 67 823 phasor~;
#X obj 67 847 lop~ 6000;
#X obj 67 885 *~;
#X floatatom 66 724 5 0 0 0 - - - 0;
#X obj 66 760 mtof;
#X floatatom 66 784 5 0 0 0 - - - 0;
#X obj 172 846 line 0 3;
#X floatatom 172 870 5 0 0 0 - - - 0;
#X msg 146 794 0.1 300;
#X msg 213 793 0 700;
#X obj 214 758 delay 2000;
#X obj 66 926 throw~ out;
#X floatatom 167 658 5 0 0 0 - - - 0;
#X floatatom 282 723 5 0 0 0 - - - 0;
#X obj 397 705 metro 10000;
#X obj 399 656 tgl 19 0 empty empty empty 0 -10 0 12 #fcfcfc #000000 #000000 0 1;
#X obj 398 732 bng 19 250 50 0 empty empty empty 0 -10 0 12 #fcfcfc #000000 #000000;
#X obj 337 823 phasor~;
#X obj 337 847 lop~ 6000;
#X obj 337 885 *~;
#X floatatom 336 724 5 0 0 0 - - - 0;
#X obj 336 760 mtof;
#X floatatom 336 784 5 0 0 0 - - - 0;
#X obj 442 846 line 0 3;
#X floatatom 442 870 5 0 0 0 - - - 0;
#X msg 416 794 0.1 300;
#X msg 483 793 0 700;
#X obj 484 758 delay 2000;
#X obj 336 926 throw~ out;
#X floatatom 437 658 5 0 0 0 - - - 0;
#X floatatom 552 723 5 0 0 0 - - - 0;
#X connect 0 0 2 0;
#X connect 1 0 0 0;
#X connect 2 0 12 0;
#X connect 2 0 14 0;
#X connect 4 0 5 0;
#X connect 5 0 6 0;
#X connect 6 0 16 0;
#X connect 7 0 8 0;
#X connect 8 0 9 0;
#X connect 9 0 4 0;
#X connect 10 0 11 0;
#X connect 11 0 6 1;
#X connect 12 0 10 0;
#X connect 13 0 10 0;
#X connect 14 0 13 0;
#X connect 15 0 3 0;
#X connect 15 0 3 1;
#X connect 17 0 0 1;
#X connect 18 0 14 1;
#X connect 19 0 21 0;
#X connect 20 0 19 0;
#X connect 21 0 30 0;
#X connect 21 0 32 0;
#X connect 22 0 23 0;
#X connect 23 0 24 0;
#X connect 24 0 33 0;
#X connect 25 0 26 0;
#X connect 26 0 27 0;
#X connect 27 0 22 0;
#X connect 28 0 29 0;
#X connect 29 0 24 1;
#X connect 30 0 28 0;
#X connect 31 0 28 0;
#X connect 32 0 31 0;
#X connect 34 0 19 1;
#X connect 35 0 32 1;
#X connect 36 0 38 0;
#X connect 37 0 36 0;
#X connect 38 0 47 0;
#X connect 38 0 49 0;
#X connect 39 0 40 0;
#X connect 40 0 41 0;
#X connect 41 0 50 0;
#X connect 42 0 43 0;
#X connect 43 0 44 0;
#X connect 44 0 39 0;
#X connect 45 0 46 0;
#X connect 46 0 41 1;
#X connect 47 0 45 0;
#X connect 48 0 45 0;
#X connect 49 0 48 0;
#X connect 51 0 36 1;
#X connect 52 0 49 1;
#X connect 53 0 55 0;
#X connect 54 0 53 0;
#X connect 55 0 64 0;
#X connect 55 0 66 0;
#X connect 56 0 57 0;
#X connect 57 0 58 0;
#X connect 58 0 67 0;
#X connect 59 0 60 0;
#X connect 60 0 61 0;
#X connect 61 0 56 0;
#X connect 62 0 63 0;
#X connect 63 0 58 1;
#X connect 64 0 62 0;
#X connect 65 0 62 0;
#X connect 66 0 65 0;
#X connect 68 0 53 1;
#X connect 69 0 66 1;
#X connect 70 0 72 0;
#X connect 71 0 70 0;
#X connect 72 0 81 0;
#X connect 72 0 83 0;
#X connect 73 0 74 0;
#X connect 74 0 75 0;
#X connect 75 0 84 0;
#X connect 76 0 77 0;
#X connect 77 0 78 0;
#X connect 78 0 73 0;
#X connect 79 0 80 0;
#X connect 80 0 75 1;
#X connect 81 0 79 0;
#X connect 82 0 79 0;
#X connect 83 0 82 0;
#X connect 85 0 70 1;
#X connect 86 0 83 1;
#X connect 87 0 89 0;
#X connect 88 0 87 0;
#X connect 89 0 98 0;
#X connect 89 0 100 0;
#X connect 90 0 91 0;
#X connect 91 0 92 0;
#X connect 92 0 101 0;
#X connect 93 0 94 0;
#X connect 94 0 95 0;
#X connect 95 0 90 0;
#X connect 96 0 97 0;
#X connect 97 0 92 1;
#X connect 98 0 96 0;
#X connect 99 0 96 0;
#X connect 100 0 99 0;
#X connect 102 0 87 1;
#X connect 103 0 100 1;
