#N canvas 525 25 1246 786 12;
#X obj 196 94 /~ 5;
#X obj 196 140 dac~ 1 2;
#X obj 196 48 catch~ \$0-out;
#X obj 24 363 bng 19 250 50 0 empty empty empty 0 -10 0 12 #fcfcfc #000000 #000000;
#X msg 24 399 0 \, 1 200;
#X obj 24 423 line~;
#X obj 24 447 sqrt~;
#X obj 24 471 *~ 20;
#X obj 24 530 -~ 0.25;
#X obj 24 554 cos~;
#X obj 24 584 throw~ \$0-out;
#X obj 130 362 bng 19 250 50 0 empty empty empty 0 -10 0 12 #fcfcfc #000000 #000000;
#X msg 130 398 0 \, 1 200;
#X obj 130 422 line~;
#X obj 130 446 sqrt~;
#X obj 130 529 -~ 0.25;
#X obj 130 553 cos~;
#X obj 130 583 throw~ \$0-out;
#X obj 234 362 bng 19 250 50 0 empty empty empty 0 -10 0 12 #fcfcfc #000000 #000000;
#X msg 234 398 0 \, 1 200;
#X obj 234 422 line~;
#X obj 234 446 sqrt~;
#X obj 234 529 -~ 0.25;
#X obj 234 553 cos~;
#X obj 234 583 throw~ \$0-out;
#X obj 130 470 *~ 50;
#X obj 234 470 *~ 80;
#X obj 592 361 bng 19 250 50 0 empty empty empty 0 -10 0 12 #fcfcfc #000000 #000000;
#X obj 592 396 t b b;
#X msg 592 420 1 \, 0 100;
#X obj 592 444 line~;
#X obj 592 468 pow~ 4;
#X obj 592 499 *~;
#X obj 646 468 osc~ 200;
#X msg 718 420 1 \, 0 100;
#X obj 718 444 line~;
#X obj 718 468 pow~ 4;
#X obj 718 499 *~;
#X obj 772 468 noise~;
#X obj 592 523 +~;
#X obj 591 554 throw~ \$0-out;
#X obj 830 360 bng 19 250 50 0 empty empty empty 0 -10 0 12 #fcfcfc #000000 #000000;
#X obj 830 395 t b b;
#X msg 830 419 1 \, 0 100;
#X obj 830 443 line~;
#X obj 830 467 pow~ 4;
#X obj 830 498 *~;
#X msg 956 419 1 \, 0 100;
#X obj 956 443 line~;
#X obj 956 467 pow~ 4;
#X obj 956 498 *~;
#X obj 1010 467 noise~;
#X obj 830 522 +~;
#X obj 829 553 throw~ \$0-out;
#X obj 884 467 osc~ 300;
#X obj 353 361 bng 19 250 50 0 empty empty empty 0 -10 0 12 #fcfcfc #000000 #000000;
#X obj 353 396 t b b;
#X msg 353 420 1 \, 0 100;
#X obj 353 444 line~;
#X obj 353 468 pow~ 4;
#X obj 353 499 *~;
#X msg 479 420 1 \, 0 100;
#X obj 479 444 line~;
#X obj 479 468 pow~ 4;
#X obj 479 499 *~;
#X obj 533 468 noise~;
#X obj 353 523 +~;
#X obj 352 554 throw~ \$0-out;
#X obj 407 468 osc~ 100;
#X obj 37 48 tgl 19 0 empty empty empty 0 -10 0 12 #fcfcfc #000000 #000000 0 1;
#X obj 37 72 metro 100;
#X obj 38 101 random 6;
#X obj 39 132 sel 0 1 2 4 5 6;
#X text 74 48 ON/OFF;
#X obj 27 864 bng 19 250 50 0 empty empty empty 0 -10 0 12 #fcfcfc #000000 #000000;
#X msg 24 899 0 \, 1 200;
#X obj 27 924 line~;
#X obj 27 948 sqrt~;
#X obj 27 1031 -~ 0.25;
#X obj 27 1055 cos~;
#X obj 27 1085 throw~ \$0-out;
#X obj 133 863 bng 19 250 50 0 empty empty empty 0 -10 0 12 #fcfcfc #000000 #000000;
#X msg 133 899 0 \, 1 200;
#X obj 133 923 line~;
#X obj 133 947 sqrt~;
#X obj 133 1030 -~ 0.25;
#X obj 133 1054 cos~;
#X obj 133 1084 throw~ \$0-out;
#X obj 237 863 bng 19 250 50 0 empty empty empty 0 -10 0 12 #fcfcfc #000000 #000000;
#X msg 237 899 0 \, 1 200;
#X obj 237 923 line~;
#X obj 237 947 sqrt~;
#X obj 237 1030 -~ 0.25;
#X obj 237 1054 cos~;
#X obj 237 1084 throw~ \$0-out;
#X obj 34 633 tgl 19 0 empty empty empty 0 -10 0 12 #fcfcfc #000000 #000000 0 1;
#X obj 34 657 metro 100;
#X obj 35 686 random 6;
#X obj 36 717 sel 0 1 2 4 5 6;
#X text 71 633 ON/OFF;
#X obj 351 864 bng 19 250 50 0 empty empty empty 0 -10 0 12 #fcfcfc #000000 #000000;
#X msg 348 899 0 \, 1 200;
#X obj 351 924 line~;
#X obj 351 948 sqrt~;
#X obj 351 1031 -~ 0.25;
#X obj 351 1055 cos~;
#X obj 351 1085 throw~ \$0-out;
#X obj 457 863 bng 19 250 50 0 empty empty empty 0 -10 0 12 #fcfcfc #000000 #000000;
#X msg 457 899 0 \, 1 200;
#X obj 457 923 line~;
#X obj 457 947 sqrt~;
#X obj 457 1030 -~ 0.25;
#X obj 457 1054 cos~;
#X obj 457 1084 throw~ \$0-out;
#X obj 561 863 bng 19 250 50 0 empty empty empty 0 -10 0 12 #fcfcfc #000000 #000000;
#X msg 561 899 0 \, 1 200;
#X obj 561 923 line~;
#X obj 561 947 sqrt~;
#X obj 561 1030 -~ 0.25;
#X obj 561 1054 cos~;
#X obj 561 1084 throw~ \$0-out;
#X obj 27 972 *~ 500;
#X obj 133 971 *~ 400;
#X obj 237 971 *~ 300;
#X obj 351 972 *~ 200;
#X obj 457 971 *~ 100;
#X obj 561 971 *~ 600;
#X connect 0 0 1 0;
#X connect 0 0 1 1;
#X connect 2 0 0 0;
#X connect 3 0 4 0;
#X connect 4 0 5 0;
#X connect 5 0 6 0;
#X connect 6 0 7 0;
#X connect 7 0 8 0;
#X connect 8 0 9 0;
#X connect 9 0 10 0;
#X connect 11 0 12 0;
#X connect 12 0 13 0;
#X connect 13 0 14 0;
#X connect 14 0 25 0;
#X connect 15 0 16 0;
#X connect 16 0 17 0;
#X connect 18 0 19 0;
#X connect 19 0 20 0;
#X connect 20 0 21 0;
#X connect 21 0 26 0;
#X connect 22 0 23 0;
#X connect 23 0 24 0;
#X connect 25 0 15 0;
#X connect 26 0 22 0;
#X connect 27 0 28 0;
#X connect 28 0 29 0;
#X connect 28 1 34 0;
#X connect 29 0 30 0;
#X connect 30 0 31 0;
#X connect 31 0 32 0;
#X connect 32 0 39 0;
#X connect 33 0 32 1;
#X connect 34 0 35 0;
#X connect 35 0 36 0;
#X connect 36 0 37 0;
#X connect 37 0 39 1;
#X connect 38 0 37 1;
#X connect 39 0 40 0;
#X connect 41 0 42 0;
#X connect 42 0 43 0;
#X connect 42 1 47 0;
#X connect 43 0 44 0;
#X connect 44 0 45 0;
#X connect 45 0 46 0;
#X connect 46 0 52 0;
#X connect 47 0 48 0;
#X connect 48 0 49 0;
#X connect 49 0 50 0;
#X connect 50 0 52 1;
#X connect 51 0 50 1;
#X connect 52 0 53 0;
#X connect 54 0 46 1;
#X connect 55 0 56 0;
#X connect 56 0 57 0;
#X connect 56 1 61 0;
#X connect 57 0 58 0;
#X connect 58 0 59 0;
#X connect 59 0 60 0;
#X connect 60 0 66 0;
#X connect 61 0 62 0;
#X connect 62 0 63 0;
#X connect 63 0 64 0;
#X connect 64 0 66 1;
#X connect 65 0 64 1;
#X connect 66 0 67 0;
#X connect 68 0 60 1;
#X connect 69 0 70 0;
#X connect 70 0 71 0;
#X connect 71 0 72 0;
#X connect 72 0 27 0;
#X connect 72 1 3 0;
#X connect 72 2 11 0;
#X connect 72 3 18 0;
#X connect 72 4 55 0;
#X connect 72 5 27 0;
#X connect 72 6 41 0;
#X connect 74 0 75 0;
#X connect 75 0 76 0;
#X connect 76 0 77 0;
#X connect 77 0 121 0;
#X connect 78 0 79 0;
#X connect 79 0 80 0;
#X connect 81 0 82 0;
#X connect 82 0 83 0;
#X connect 83 0 84 0;
#X connect 84 0 122 0;
#X connect 85 0 86 0;
#X connect 86 0 87 0;
#X connect 88 0 89 0;
#X connect 89 0 90 0;
#X connect 90 0 91 0;
#X connect 91 0 123 0;
#X connect 92 0 93 0;
#X connect 93 0 94 0;
#X connect 95 0 96 0;
#X connect 96 0 97 0;
#X connect 97 0 98 0;
#X connect 98 0 74 0;
#X connect 98 1 81 0;
#X connect 98 2 88 0;
#X connect 98 3 100 0;
#X connect 98 4 107 0;
#X connect 98 5 114 0;
#X connect 98 6 114 0;
#X connect 100 0 101 0;
#X connect 101 0 102 0;
#X connect 102 0 103 0;
#X connect 103 0 124 0;
#X connect 104 0 105 0;
#X connect 105 0 106 0;
#X connect 107 0 108 0;
#X connect 108 0 109 0;
#X connect 109 0 110 0;
#X connect 110 0 125 0;
#X connect 111 0 112 0;
#X connect 112 0 113 0;
#X connect 114 0 115 0;
#X connect 115 0 116 0;
#X connect 116 0 117 0;
#X connect 117 0 126 0;
#X connect 118 0 119 0;
#X connect 119 0 120 0;
#X connect 121 0 78 0;
#X connect 122 0 85 0;
#X connect 123 0 92 0;
#X connect 124 0 104 0;
#X connect 125 0 111 0;
#X connect 126 0 118 0;
