#N canvas 7 33 1425 772 12;
#X declare -lib Gem;
#X obj 10 11 declare -lib Gem;
#X msg -1 324 create \, 1;
#X msg 28 368 0 \, destroy;
#X msg 49 399 dimen 640 480;
#X obj 19 468 gemwin;
#X obj 7 52 bng 19 250 50 0 empty empty empty 0 -10 0 12 #fcfcfc #000000 #000000;
#X obj 7 76 bng 19 250 50 0 empty empty empty 0 -10 0 12 #fcfcfc #000000 #000000;
#N canvas 415 107 450 300 (subpatch) 1;
#X obj 195 24 gemhead;
#X obj 194 160 colorRGB;
#X obj 196 628 tgl 19 0 empty empty empty 0 -10 0 12 #fcfcfc #000000 #000000 0 1;
#X msg 191 650 draw line;
#X obj 190 443 scaleXYZ;
#X obj 183 605 translateXYZ;
#X floatatom 194 574 5 0 0 0 - - - 0;
#X obj 203 522 random 10;
#X obj 202 550 - 5;
#X obj 208 466 tgl 19 0 empty empty empty 0 -10 0 12 #fcfcfc #000000 #000000 0 1;
#X obj 278 523 random 10;
#X obj 237 552 - 5;
#X obj 355 523 random 10;
#X obj 283 550 - 5;
#X floatatom 238 575 5 0 0 0 - - - 0;
#X floatatom 287 575 5 0 0 0 - - - 0;
#X obj 208 490 metro 60;
#X floatatom 208 375 5 0 0 0 - - - 0;
#X obj 212 187 tgl 19 0 empty empty empty 0 -10 0 12 #fcfcfc #000000 #000000 0 1;
#X floatatom 249 375 5 0 0 0 - - - 0;
#X floatatom 294 375 5 0 0 0 - - - 0;
#X obj 206 219 metro 60;
#X obj 209 308 - 0;
#X obj 251 316 - 0;
#X obj 296 317 - 0;
#X obj 208 282 random 3;
#X obj 272 285 random 3;
#X obj 338 280 random 3;
#X floatatom 219 88 5 0 0 0 - - - 0;
#X floatatom 247 133 5 0 0 0 - - - 0;
#X floatatom 234 112 5 0 0 0 - - - 0;
#X floatatom 207 68 5 0 0 0 - - - 0;
#X text 220 629 Wireframe;
#X obj 182 674 cube;
#X text 236 467 Random location;
#X text 236 188 Random size;
#X text 203 43 Color;
#X connect 0 0 1 0;
#X connect 1 0 4 0;
#X connect 2 0 3 0;
#X connect 3 0 33 0;
#X connect 4 0 5 0;
#X connect 5 0 33 0;
#X connect 6 0 5 1;
#X connect 7 0 8 0;
#X connect 8 0 6 0;
#X connect 9 0 16 0;
#X connect 10 0 11 0;
#X connect 11 0 14 0;
#X connect 12 0 13 0;
#X connect 13 0 15 0;
#X connect 14 0 5 2;
#X connect 15 0 5 3;
#X connect 16 0 7 0;
#X connect 16 0 10 0;
#X connect 16 0 12 0;
#X connect 17 0 4 1;
#X connect 18 0 21 0;
#X connect 19 0 4 2;
#X connect 20 0 4 3;
#X connect 21 0 25 0;
#X connect 21 0 26 0;
#X connect 21 0 27 0;
#X connect 22 0 17 0;
#X connect 23 0 19 0;
#X connect 24 0 20 0;
#X connect 25 0 22 0;
#X connect 26 0 23 0;
#X connect 27 0 24 0;
#X connect 28 0 1 2;
#X connect 29 0 1 4;
#X connect 30 0 1 3;
#X connect 31 0 1 1;
#X restore 204 144 pd;
#N canvas 372 89 450 300 (subpatch) 1;
#X obj 195 24 gemhead;
#X obj 194 160 colorRGB;
#X obj 196 628 tgl 19 0 empty empty empty 0 -10 0 12 #fcfcfc #000000 #000000 0 1;
#X msg 191 650 draw line;
#X obj 190 443 scaleXYZ;
#X obj 183 605 translateXYZ;
#X floatatom 194 574 5 0 0 0 - - - 0;
#X obj 203 522 random 10;
#X obj 202 550 - 5;
#X obj 208 466 tgl 19 0 empty empty empty 0 -10 0 12 #fcfcfc #000000 #000000 0 1;
#X obj 278 523 random 10;
#X obj 237 552 - 5;
#X obj 355 523 random 10;
#X obj 283 550 - 5;
#X floatatom 238 575 5 0 0 0 - - - 0;
#X floatatom 287 575 5 0 0 0 - - - 0;
#X obj 208 490 metro 60;
#X floatatom 208 375 5 0 0 0 - - - 0;
#X obj 212 187 tgl 19 0 empty empty empty 0 -10 0 12 #fcfcfc #000000 #000000 0 1;
#X floatatom 249 375 5 0 0 0 - - - 0;
#X floatatom 294 375 5 0 0 0 - - - 0;
#X obj 206 219 metro 60;
#X obj 209 308 - 0;
#X obj 251 316 - 0;
#X obj 296 317 - 0;
#X obj 208 282 random 3;
#X obj 272 285 random 3;
#X obj 338 280 random 3;
#X floatatom 219 88 5 0 0 0 - - - 0;
#X floatatom 247 133 5 0 0 0 - - - 0;
#X floatatom 234 112 5 0 0 0 - - - 0;
#X floatatom 207 68 5 0 0 0 - - - 0;
#X text 220 629 Wireframe;
#X obj 182 674 cube;
#X text 236 467 Random location;
#X text 236 188 Random size;
#X text 203 43 Color;
#X connect 0 0 1 0;
#X connect 1 0 4 0;
#X connect 2 0 3 0;
#X connect 3 0 33 0;
#X connect 4 0 5 0;
#X connect 5 0 33 0;
#X connect 6 0 5 1;
#X connect 7 0 8 0;
#X connect 8 0 6 0;
#X connect 9 0 16 0;
#X connect 10 0 11 0;
#X connect 11 0 14 0;
#X connect 12 0 13 0;
#X connect 13 0 15 0;
#X connect 14 0 5 2;
#X connect 15 0 5 3;
#X connect 16 0 7 0;
#X connect 16 0 10 0;
#X connect 16 0 12 0;
#X connect 17 0 4 1;
#X connect 18 0 21 0;
#X connect 19 0 4 2;
#X connect 20 0 4 3;
#X connect 21 0 25 0;
#X connect 21 0 26 0;
#X connect 21 0 27 0;
#X connect 22 0 17 0;
#X connect 23 0 19 0;
#X connect 24 0 20 0;
#X connect 25 0 22 0;
#X connect 26 0 23 0;
#X connect 27 0 24 0;
#X connect 28 0 1 2;
#X connect 29 0 1 4;
#X connect 30 0 1 3;
#X connect 31 0 1 1;
#X restore 139 144 pd;
#N canvas 415 107 450 300 (subpatch) 1;
#X obj 195 24 gemhead;
#X obj 194 160 colorRGB;
#X obj 196 628 tgl 19 0 empty empty empty 0 -10 0 12 #fcfcfc #000000 #000000 0 1;
#X msg 191 650 draw line;
#X obj 190 443 scaleXYZ;
#X obj 183 605 translateXYZ;
#X floatatom 194 574 5 0 0 0 - - - 0;
#X obj 203 522 random 10;
#X obj 202 550 - 5;
#X obj 208 466 tgl 19 0 empty empty empty 0 -10 0 12 #fcfcfc #000000 #000000 0 1;
#X obj 278 523 random 10;
#X obj 237 552 - 5;
#X obj 355 523 random 10;
#X obj 283 550 - 5;
#X floatatom 238 575 5 0 0 0 - - - 0;
#X floatatom 287 575 5 0 0 0 - - - 0;
#X obj 208 490 metro 60;
#X floatatom 208 375 5 0 0 0 - - - 0;
#X obj 212 187 tgl 19 0 empty empty empty 0 -10 0 12 #fcfcfc #000000 #000000 0 1;
#X floatatom 249 375 5 0 0 0 - - - 0;
#X floatatom 294 375 5 0 0 0 - - - 0;
#X obj 206 219 metro 60;
#X obj 209 308 - 0;
#X obj 251 316 - 0;
#X obj 296 317 - 0;
#X obj 208 282 random 3;
#X obj 272 285 random 3;
#X obj 338 280 random 3;
#X floatatom 219 88 5 0 0 0 - - - 0;
#X floatatom 247 133 5 0 0 0 - - - 0;
#X floatatom 234 112 5 0 0 0 - - - 0;
#X floatatom 207 68 5 0 0 0 - - - 0;
#X text 220 629 Wireframe;
#X obj 182 674 cube;
#X text 236 467 Random location;
#X text 236 188 Random size;
#X text 203 43 Color;
#X connect 0 0 1 0;
#X connect 1 0 4 0;
#X connect 2 0 3 0;
#X connect 3 0 33 0;
#X connect 4 0 5 0;
#X connect 5 0 33 0;
#X connect 6 0 5 1;
#X connect 7 0 8 0;
#X connect 8 0 6 0;
#X connect 9 0 16 0;
#X connect 10 0 11 0;
#X connect 11 0 14 0;
#X connect 12 0 13 0;
#X connect 13 0 15 0;
#X connect 14 0 5 2;
#X connect 15 0 5 3;
#X connect 16 0 7 0;
#X connect 16 0 10 0;
#X connect 16 0 12 0;
#X connect 17 0 4 1;
#X connect 18 0 21 0;
#X connect 19 0 4 2;
#X connect 20 0 4 3;
#X connect 21 0 25 0;
#X connect 21 0 26 0;
#X connect 21 0 27 0;
#X connect 22 0 17 0;
#X connect 23 0 19 0;
#X connect 24 0 20 0;
#X connect 25 0 22 0;
#X connect 26 0 23 0;
#X connect 27 0 24 0;
#X connect 28 0 1 2;
#X connect 29 0 1 4;
#X connect 30 0 1 3;
#X connect 31 0 1 1;
#X restore 205 178 pd;
#N canvas 415 107 450 300 (subpatch) 0;
#X obj 195 24 gemhead;
#X obj 194 160 colorRGB;
#X obj 196 628 tgl 19 0 empty empty empty 0 -10 0 12 #fcfcfc #000000 #000000 0 1;
#X msg 191 650 draw line;
#X obj 190 443 scaleXYZ;
#X obj 183 605 translateXYZ;
#X floatatom 194 574 5 0 0 0 - - - 0;
#X obj 203 522 random 10;
#X obj 202 550 - 5;
#X obj 208 466 tgl 19 0 empty empty empty 0 -10 0 12 #fcfcfc #000000 #000000 0 1;
#X obj 278 523 random 10;
#X obj 237 552 - 5;
#X obj 355 523 random 10;
#X obj 283 550 - 5;
#X floatatom 238 575 5 0 0 0 - - - 0;
#X floatatom 287 575 5 0 0 0 - - - 0;
#X obj 208 490 metro 60;
#X floatatom 208 375 5 0 0 0 - - - 0;
#X obj 212 187 tgl 19 0 empty empty empty 0 -10 0 12 #fcfcfc #000000 #000000 0 1;
#X floatatom 249 375 5 0 0 0 - - - 0;
#X floatatom 294 375 5 0 0 0 - - - 0;
#X obj 206 219 metro 60;
#X obj 209 308 - 0;
#X obj 251 316 - 0;
#X obj 296 317 - 0;
#X obj 208 282 random 3;
#X obj 272 285 random 3;
#X obj 338 280 random 3;
#X floatatom 219 88 5 0 0 0 - - - 0;
#X floatatom 247 133 5 0 0 0 - - - 0;
#X floatatom 234 112 5 0 0 0 - - - 0;
#X floatatom 207 68 5 0 0 0 - - - 0;
#X text 220 629 Wireframe;
#X obj 182 674 cube;
#X text 236 467 Random location;
#X text 236 188 Random size;
#X text 203 43 Color;
#X connect 0 0 1 0;
#X connect 1 0 4 0;
#X connect 2 0 3 0;
#X connect 3 0 33 0;
#X connect 4 0 5 0;
#X connect 5 0 33 0;
#X connect 6 0 5 1;
#X connect 7 0 8 0;
#X connect 8 0 6 0;
#X connect 9 0 16 0;
#X connect 10 0 11 0;
#X connect 11 0 14 0;
#X connect 12 0 13 0;
#X connect 13 0 15 0;
#X connect 14 0 5 2;
#X connect 15 0 5 3;
#X connect 16 0 7 0;
#X connect 16 0 10 0;
#X connect 16 0 12 0;
#X connect 17 0 4 1;
#X connect 18 0 21 0;
#X connect 19 0 4 2;
#X connect 20 0 4 3;
#X connect 21 0 25 0;
#X connect 21 0 26 0;
#X connect 21 0 27 0;
#X connect 22 0 17 0;
#X connect 23 0 19 0;
#X connect 24 0 20 0;
#X connect 25 0 22 0;
#X connect 26 0 23 0;
#X connect 27 0 24 0;
#X connect 28 0 1 2;
#X connect 29 0 1 4;
#X connect 30 0 1 3;
#X connect 31 0 1 1;
#X restore 140 178 pd;
#N canvas 415 107 450 300 (subpatch) 1;
#X obj 195 24 gemhead;
#X obj 194 160 colorRGB;
#X obj 196 628 tgl 19 0 empty empty empty 0 -10 0 12 #fcfcfc #000000 #000000 0 1;
#X msg 191 650 draw line;
#X obj 190 443 scaleXYZ;
#X obj 183 605 translateXYZ;
#X floatatom 194 574 5 0 0 0 - - - 0;
#X obj 203 522 random 10;
#X obj 202 550 - 5;
#X obj 208 466 tgl 19 0 empty empty empty 0 -10 0 12 #fcfcfc #000000 #000000 0 1;
#X obj 278 523 random 10;
#X obj 237 552 - 5;
#X obj 355 523 random 10;
#X obj 283 550 - 5;
#X floatatom 238 575 5 0 0 0 - - - 0;
#X floatatom 287 575 5 0 0 0 - - - 0;
#X obj 208 490 metro 60;
#X floatatom 208 375 5 0 0 0 - - - 0;
#X obj 212 187 tgl 19 0 empty empty empty 0 -10 0 12 #fcfcfc #000000 #000000 0 1;
#X floatatom 249 375 5 0 0 0 - - - 0;
#X floatatom 294 375 5 0 0 0 - - - 0;
#X obj 206 219 metro 60;
#X obj 209 308 - 0;
#X obj 251 316 - 0;
#X obj 296 317 - 0;
#X obj 208 282 random 3;
#X obj 272 285 random 3;
#X obj 338 280 random 3;
#X floatatom 219 88 5 0 0 0 - - - 0;
#X floatatom 247 133 5 0 0 0 - - - 0;
#X floatatom 234 112 5 0 0 0 - - - 0;
#X floatatom 207 68 5 0 0 0 - - - 0;
#X text 220 629 Wireframe;
#X obj 182 674 cube;
#X text 236 467 Random location;
#X text 236 188 Random size;
#X text 203 43 Color;
#X connect 0 0 1 0;
#X connect 1 0 4 0;
#X connect 2 0 3 0;
#X connect 3 0 33 0;
#X connect 4 0 5 0;
#X connect 5 0 33 0;
#X connect 6 0 5 1;
#X connect 7 0 8 0;
#X connect 8 0 6 0;
#X connect 9 0 16 0;
#X connect 10 0 11 0;
#X connect 11 0 14 0;
#X connect 12 0 13 0;
#X connect 13 0 15 0;
#X connect 14 0 5 2;
#X connect 15 0 5 3;
#X connect 16 0 7 0;
#X connect 16 0 10 0;
#X connect 16 0 12 0;
#X connect 17 0 4 1;
#X connect 18 0 21 0;
#X connect 19 0 4 2;
#X connect 20 0 4 3;
#X connect 21 0 25 0;
#X connect 21 0 26 0;
#X connect 21 0 27 0;
#X connect 22 0 17 0;
#X connect 23 0 19 0;
#X connect 24 0 20 0;
#X connect 25 0 22 0;
#X connect 26 0 23 0;
#X connect 27 0 24 0;
#X connect 28 0 1 2;
#X connect 29 0 1 4;
#X connect 30 0 1 3;
#X connect 31 0 1 1;
#X restore 203 214 pd;
#N canvas 415 107 450 300 (subpatch) 0;
#X obj 195 24 gemhead;
#X obj 194 160 colorRGB;
#X obj 196 628 tgl 19 0 empty empty empty 0 -10 0 12 #fcfcfc #000000 #000000 0 1;
#X msg 191 650 draw line;
#X obj 190 443 scaleXYZ;
#X obj 183 605 translateXYZ;
#X floatatom 194 574 5 0 0 0 - - - 0;
#X obj 203 522 random 10;
#X obj 202 550 - 5;
#X obj 208 466 tgl 19 0 empty empty empty 0 -10 0 12 #fcfcfc #000000 #000000 0 1;
#X obj 278 523 random 10;
#X obj 237 552 - 5;
#X obj 355 523 random 10;
#X obj 283 550 - 5;
#X floatatom 238 575 5 0 0 0 - - - 0;
#X floatatom 287 575 5 0 0 0 - - - 0;
#X obj 208 490 metro 60;
#X floatatom 208 375 5 0 0 0 - - - 0;
#X obj 212 187 tgl 19 0 empty empty empty 0 -10 0 12 #fcfcfc #000000 #000000 0 1;
#X floatatom 249 375 5 0 0 0 - - - 0;
#X floatatom 294 375 5 0 0 0 - - - 0;
#X obj 206 219 metro 60;
#X obj 209 308 - 0;
#X obj 251 316 - 0;
#X obj 296 317 - 0;
#X obj 208 282 random 3;
#X obj 272 285 random 3;
#X obj 338 280 random 3;
#X floatatom 219 88 5 0 0 0 - - - 0;
#X floatatom 247 133 5 0 0 0 - - - 0;
#X floatatom 234 112 5 0 0 0 - - - 0;
#X floatatom 207 68 5 0 0 0 - - - 0;
#X text 220 629 Wireframe;
#X obj 182 674 cube;
#X text 236 467 Random location;
#X text 236 188 Random size;
#X text 203 43 Color;
#X connect 0 0 1 0;
#X connect 1 0 4 0;
#X connect 2 0 3 0;
#X connect 3 0 33 0;
#X connect 4 0 5 0;
#X connect 5 0 33 0;
#X connect 6 0 5 1;
#X connect 7 0 8 0;
#X connect 8 0 6 0;
#X connect 9 0 16 0;
#X connect 10 0 11 0;
#X connect 11 0 14 0;
#X connect 12 0 13 0;
#X connect 13 0 15 0;
#X connect 14 0 5 2;
#X connect 15 0 5 3;
#X connect 16 0 7 0;
#X connect 16 0 10 0;
#X connect 16 0 12 0;
#X connect 17 0 4 1;
#X connect 18 0 21 0;
#X connect 19 0 4 2;
#X connect 20 0 4 3;
#X connect 21 0 25 0;
#X connect 21 0 26 0;
#X connect 21 0 27 0;
#X connect 22 0 17 0;
#X connect 23 0 19 0;
#X connect 24 0 20 0;
#X connect 25 0 22 0;
#X connect 26 0 23 0;
#X connect 27 0 24 0;
#X connect 28 0 1 2;
#X connect 29 0 1 4;
#X connect 30 0 1 3;
#X connect 31 0 1 1;
#X restore 138 214 pd;
#N canvas 415 107 450 300 (subpatch) 1;
#X obj 195 24 gemhead;
#X obj 194 160 colorRGB;
#X obj 196 628 tgl 19 0 empty empty empty 0 -10 0 12 #fcfcfc #000000 #000000 0 1;
#X msg 191 650 draw line;
#X obj 190 443 scaleXYZ;
#X obj 183 605 translateXYZ;
#X floatatom 194 574 5 0 0 0 - - - 0;
#X obj 203 522 random 10;
#X obj 202 550 - 5;
#X obj 208 466 tgl 19 0 empty empty empty 0 -10 0 12 #fcfcfc #000000 #000000 0 1;
#X obj 278 523 random 10;
#X obj 237 552 - 5;
#X obj 355 523 random 10;
#X obj 283 550 - 5;
#X floatatom 238 575 5 0 0 0 - - - 0;
#X floatatom 287 575 5 0 0 0 - - - 0;
#X obj 208 490 metro 60;
#X floatatom 208 375 5 0 0 0 - - - 0;
#X obj 212 187 tgl 19 0 empty empty empty 0 -10 0 12 #fcfcfc #000000 #000000 0 1;
#X floatatom 249 375 5 0 0 0 - - - 0;
#X floatatom 294 375 5 0 0 0 - - - 0;
#X obj 206 219 metro 60;
#X obj 209 308 - 0;
#X obj 251 316 - 0;
#X obj 296 317 - 0;
#X obj 208 282 random 3;
#X obj 272 285 random 3;
#X obj 338 280 random 3;
#X floatatom 219 88 5 0 0 0 - - - 0;
#X floatatom 247 133 5 0 0 0 - - - 0;
#X floatatom 234 112 5 0 0 0 - - - 0;
#X floatatom 207 68 5 0 0 0 - - - 0;
#X text 220 629 Wireframe;
#X obj 182 674 cube;
#X text 236 467 Random location;
#X text 236 188 Random size;
#X text 203 43 Color;
#X connect 0 0 1 0;
#X connect 1 0 4 0;
#X connect 2 0 3 0;
#X connect 3 0 33 0;
#X connect 4 0 5 0;
#X connect 5 0 33 0;
#X connect 6 0 5 1;
#X connect 7 0 8 0;
#X connect 8 0 6 0;
#X connect 9 0 16 0;
#X connect 10 0 11 0;
#X connect 11 0 14 0;
#X connect 12 0 13 0;
#X connect 13 0 15 0;
#X connect 14 0 5 2;
#X connect 15 0 5 3;
#X connect 16 0 7 0;
#X connect 16 0 10 0;
#X connect 16 0 12 0;
#X connect 17 0 4 1;
#X connect 18 0 21 0;
#X connect 19 0 4 2;
#X connect 20 0 4 3;
#X connect 21 0 25 0;
#X connect 21 0 26 0;
#X connect 21 0 27 0;
#X connect 22 0 17 0;
#X connect 23 0 19 0;
#X connect 24 0 20 0;
#X connect 25 0 22 0;
#X connect 26 0 23 0;
#X connect 27 0 24 0;
#X connect 28 0 1 2;
#X connect 29 0 1 4;
#X connect 30 0 1 3;
#X connect 31 0 1 1;
#X restore 201 251 pd;
#N canvas 415 107 450 300 (subpatch) 0;
#X obj 195 24 gemhead;
#X obj 194 160 colorRGB;
#X obj 196 628 tgl 19 0 empty empty empty 0 -10 0 12 #fcfcfc #000000 #000000 0 1;
#X msg 191 650 draw line;
#X obj 190 443 scaleXYZ;
#X obj 183 605 translateXYZ;
#X floatatom 194 574 5 0 0 0 - - - 0;
#X obj 203 522 random 10;
#X obj 202 550 - 5;
#X obj 208 466 tgl 19 0 empty empty empty 0 -10 0 12 #fcfcfc #000000 #000000 0 1;
#X obj 278 523 random 10;
#X obj 237 552 - 5;
#X obj 355 523 random 10;
#X obj 283 550 - 5;
#X floatatom 238 575 5 0 0 0 - - - 0;
#X floatatom 287 575 5 0 0 0 - - - 0;
#X obj 208 490 metro 60;
#X floatatom 208 375 5 0 0 0 - - - 0;
#X obj 212 187 tgl 19 0 empty empty empty 0 -10 0 12 #fcfcfc #000000 #000000 0 1;
#X floatatom 249 375 5 0 0 0 - - - 0;
#X floatatom 294 375 5 0 0 0 - - - 0;
#X obj 206 219 metro 60;
#X obj 209 308 - 0;
#X obj 251 316 - 0;
#X obj 296 317 - 0;
#X obj 208 282 random 3;
#X obj 272 285 random 3;
#X obj 338 280 random 3;
#X floatatom 219 88 5 0 0 0 - - - 0;
#X floatatom 247 133 5 0 0 0 - - - 0;
#X floatatom 234 112 5 0 0 0 - - - 0;
#X floatatom 207 68 5 0 0 0 - - - 0;
#X text 220 629 Wireframe;
#X obj 182 674 cube;
#X text 236 467 Random location;
#X text 236 188 Random size;
#X text 203 43 Color;
#X connect 0 0 1 0;
#X connect 1 0 4 0;
#X connect 2 0 3 0;
#X connect 3 0 33 0;
#X connect 4 0 5 0;
#X connect 5 0 33 0;
#X connect 6 0 5 1;
#X connect 7 0 8 0;
#X connect 8 0 6 0;
#X connect 9 0 16 0;
#X connect 10 0 11 0;
#X connect 11 0 14 0;
#X connect 12 0 13 0;
#X connect 13 0 15 0;
#X connect 14 0 5 2;
#X connect 15 0 5 3;
#X connect 16 0 7 0;
#X connect 16 0 10 0;
#X connect 16 0 12 0;
#X connect 17 0 4 1;
#X connect 18 0 21 0;
#X connect 19 0 4 2;
#X connect 20 0 4 3;
#X connect 21 0 25 0;
#X connect 21 0 26 0;
#X connect 21 0 27 0;
#X connect 22 0 17 0;
#X connect 23 0 19 0;
#X connect 24 0 20 0;
#X connect 25 0 22 0;
#X connect 26 0 23 0;
#X connect 27 0 24 0;
#X connect 28 0 1 2;
#X connect 29 0 1 4;
#X connect 30 0 1 3;
#X connect 31 0 1 1;
#X restore 136 251 pd;
#N canvas 208 233 450 300 (subpatch) 0;
#X obj 17 1 gemhead;
#X obj 17 159 colorRGB;
#X obj 19 627 tgl 19 0 empty empty empty 0 -10 0 12 #fcfcfc #000000 #000000 0 1;
#X msg 14 649 draw line;
#X obj 13 442 scaleXYZ;
#X obj 6 604 translateXYZ;
#X floatatom 17 573 5 0 0 0 - - - 0;
#X obj 26 521 random 10;
#X obj 25 549 - 5;
#X obj 31 465 tgl 19 0 empty empty empty 0 -10 0 12 #fcfcfc #000000 #000000 0 1;
#X obj 101 521 random 10;
#X obj 60 551 - 5;
#X obj 106 549 - 5;
#X floatatom 61 574 5 0 0 0 - - - 0;
#X floatatom 110 574 5 0 0 0 - - - 0;
#X obj 31 489 metro 60;
#X floatatom 31 374 5 0 0 0 - - - 0;
#X obj 35 186 tgl 19 0 empty empty empty 0 -10 0 12 #fcfcfc #000000 #000000 0 1;
#X floatatom 72 374 5 0 0 0 - - - 0;
#X floatatom 117 374 5 0 0 0 - - - 0;
#X obj 29 218 metro 60;
#X obj 32 307 - 0;
#X obj 74 315 - 0;
#X obj 119 316 - 0;
#X obj 31 281 random 3;
#X obj 95 284 random 3;
#X obj 161 283 random 3;
#X floatatom 42 87 5 0 0 0 - - - 0;
#X floatatom 70 132 5 0 0 0 - - - 0;
#X floatatom 57 111 5 0 0 0 - - - 0;
#X floatatom 30 67 5 0 0 0 - - - 0;
#X text 43 628 Wireframe;
#X text 59 466 Random location;
#X text 59 187 Random size;
#X text 26 42 Color;
#X obj 173 521 random 10;
#X obj 5 673 sphere;
#X connect 0 0 1 0;
#X connect 1 0 4 0;
#X connect 2 0 3 0;
#X connect 3 0 36 0;
#X connect 4 0 5 0;
#X connect 5 0 36 0;
#X connect 6 0 5 1;
#X connect 7 0 8 0;
#X connect 8 0 6 0;
#X connect 9 0 15 0;
#X connect 10 0 11 0;
#X connect 11 0 13 0;
#X connect 12 0 14 0;
#X connect 13 0 5 2;
#X connect 14 0 5 3;
#X connect 15 0 7 0;
#X connect 15 0 10 0;
#X connect 15 0 35 0;
#X connect 16 0 4 1;
#X connect 17 0 20 0;
#X connect 18 0 4 2;
#X connect 19 0 4 3;
#X connect 20 0 24 0;
#X connect 20 0 25 0;
#X connect 20 0 26 0;
#X connect 21 0 16 0;
#X connect 22 0 18 0;
#X connect 23 0 19 0;
#X connect 24 0 21 0;
#X connect 25 0 22 0;
#X connect 26 0 23 0;
#X connect 27 0 1 2;
#X connect 28 0 1 4;
#X connect 29 0 1 3;
#X connect 30 0 1 1;
#X connect 35 0 12 0;
#X restore 424 142 pd;
#N canvas 208 233 450 300 (subpatch) 0;
#X obj 17 1 gemhead;
#X obj 17 159 colorRGB;
#X obj 19 627 tgl 19 0 empty empty empty 0 -10 0 12 #fcfcfc #000000 #000000 0 1;
#X msg 14 649 draw line;
#X obj 13 442 scaleXYZ;
#X obj 6 604 translateXYZ;
#X floatatom 17 573 5 0 0 0 - - - 0;
#X obj 26 521 random 10;
#X obj 25 549 - 5;
#X obj 31 465 tgl 19 0 empty empty empty 0 -10 0 12 #fcfcfc #000000 #000000 0 1;
#X obj 101 521 random 10;
#X obj 60 551 - 5;
#X obj 106 549 - 5;
#X floatatom 61 574 5 0 0 0 - - - 0;
#X floatatom 110 574 5 0 0 0 - - - 0;
#X obj 31 489 metro 60;
#X floatatom 31 374 5 0 0 0 - - - 0;
#X obj 35 186 tgl 19 0 empty empty empty 0 -10 0 12 #fcfcfc #000000 #000000 0 1;
#X floatatom 72 374 5 0 0 0 - - - 0;
#X floatatom 117 374 5 0 0 0 - - - 0;
#X obj 29 218 metro 60;
#X obj 32 307 - 0;
#X obj 74 315 - 0;
#X obj 119 316 - 0;
#X obj 31 281 random 3;
#X obj 95 284 random 3;
#X obj 161 283 random 3;
#X floatatom 42 87 5 0 0 0 - - - 0;
#X floatatom 70 132 5 0 0 0 - - - 0;
#X floatatom 57 111 5 0 0 0 - - - 0;
#X floatatom 30 67 5 0 0 0 - - - 0;
#X text 43 628 Wireframe;
#X text 59 466 Random location;
#X text 59 187 Random size;
#X text 26 42 Color;
#X obj 173 521 random 10;
#X obj 5 673 sphere;
#X connect 0 0 1 0;
#X connect 1 0 4 0;
#X connect 2 0 3 0;
#X connect 3 0 36 0;
#X connect 4 0 5 0;
#X connect 5 0 36 0;
#X connect 6 0 5 1;
#X connect 7 0 8 0;
#X connect 8 0 6 0;
#X connect 9 0 15 0;
#X connect 10 0 11 0;
#X connect 11 0 13 0;
#X connect 12 0 14 0;
#X connect 13 0 5 2;
#X connect 14 0 5 3;
#X connect 15 0 7 0;
#X connect 15 0 10 0;
#X connect 15 0 35 0;
#X connect 16 0 4 1;
#X connect 17 0 20 0;
#X connect 18 0 4 2;
#X connect 19 0 4 3;
#X connect 20 0 24 0;
#X connect 20 0 25 0;
#X connect 20 0 26 0;
#X connect 21 0 16 0;
#X connect 22 0 18 0;
#X connect 23 0 19 0;
#X connect 24 0 21 0;
#X connect 25 0 22 0;
#X connect 26 0 23 0;
#X connect 27 0 1 2;
#X connect 28 0 1 4;
#X connect 29 0 1 3;
#X connect 30 0 1 1;
#X connect 35 0 12 0;
#X restore 495 143 pd;
#N canvas 208 233 450 300 (subpatch) 0;
#X obj 17 1 gemhead;
#X obj 17 159 colorRGB;
#X obj 19 627 tgl 19 0 empty empty empty 0 -10 0 12 #fcfcfc #000000 #000000 0 1;
#X msg 14 649 draw line;
#X obj 13 442 scaleXYZ;
#X obj 6 604 translateXYZ;
#X floatatom 17 573 5 0 0 0 - - - 0;
#X obj 26 521 random 10;
#X obj 25 549 - 5;
#X obj 31 465 tgl 19 0 empty empty empty 0 -10 0 12 #fcfcfc #000000 #000000 0 1;
#X obj 101 521 random 10;
#X obj 60 551 - 5;
#X obj 106 549 - 5;
#X floatatom 61 574 5 0 0 0 - - - 0;
#X floatatom 110 574 5 0 0 0 - - - 0;
#X obj 31 489 metro 60;
#X floatatom 31 374 5 0 0 0 - - - 0;
#X obj 35 186 tgl 19 0 empty empty empty 0 -10 0 12 #fcfcfc #000000 #000000 0 1;
#X floatatom 72 374 5 0 0 0 - - - 0;
#X floatatom 117 374 5 0 0 0 - - - 0;
#X obj 29 218 metro 60;
#X obj 32 307 - 0;
#X obj 74 315 - 0;
#X obj 119 316 - 0;
#X obj 31 281 random 3;
#X obj 95 284 random 3;
#X obj 161 283 random 3;
#X floatatom 42 87 5 0 0 0 - - - 0;
#X floatatom 70 132 5 0 0 0 - - - 0;
#X floatatom 57 111 5 0 0 0 - - - 0;
#X floatatom 30 67 5 0 0 0 - - - 0;
#X text 43 628 Wireframe;
#X text 59 466 Random location;
#X text 59 187 Random size;
#X text 26 42 Color;
#X obj 173 521 random 10;
#X obj 5 673 sphere;
#X connect 0 0 1 0;
#X connect 1 0 4 0;
#X connect 2 0 3 0;
#X connect 3 0 36 0;
#X connect 4 0 5 0;
#X connect 5 0 36 0;
#X connect 6 0 5 1;
#X connect 7 0 8 0;
#X connect 8 0 6 0;
#X connect 9 0 15 0;
#X connect 10 0 11 0;
#X connect 11 0 13 0;
#X connect 12 0 14 0;
#X connect 13 0 5 2;
#X connect 14 0 5 3;
#X connect 15 0 7 0;
#X connect 15 0 10 0;
#X connect 15 0 35 0;
#X connect 16 0 4 1;
#X connect 17 0 20 0;
#X connect 18 0 4 2;
#X connect 19 0 4 3;
#X connect 20 0 24 0;
#X connect 20 0 25 0;
#X connect 20 0 26 0;
#X connect 21 0 16 0;
#X connect 22 0 18 0;
#X connect 23 0 19 0;
#X connect 24 0 21 0;
#X connect 25 0 22 0;
#X connect 26 0 23 0;
#X connect 27 0 1 2;
#X connect 28 0 1 4;
#X connect 29 0 1 3;
#X connect 30 0 1 1;
#X connect 35 0 12 0;
#X restore 424 170 pd;
#N canvas 208 233 450 300 (subpatch) 0;
#X obj 17 1 gemhead;
#X obj 17 159 colorRGB;
#X obj 19 627 tgl 19 0 empty empty empty 0 -10 0 12 #fcfcfc #000000 #000000 0 1;
#X msg 14 649 draw line;
#X obj 13 442 scaleXYZ;
#X obj 6 604 translateXYZ;
#X floatatom 17 573 5 0 0 0 - - - 0;
#X obj 26 521 random 10;
#X obj 25 549 - 5;
#X obj 31 465 tgl 19 0 empty empty empty 0 -10 0 12 #fcfcfc #000000 #000000 0 1;
#X obj 101 521 random 10;
#X obj 60 551 - 5;
#X obj 106 549 - 5;
#X floatatom 61 574 5 0 0 0 - - - 0;
#X floatatom 110 574 5 0 0 0 - - - 0;
#X obj 31 489 metro 60;
#X floatatom 31 374 5 0 0 0 - - - 0;
#X obj 35 186 tgl 19 0 empty empty empty 0 -10 0 12 #fcfcfc #000000 #000000 0 1;
#X floatatom 72 374 5 0 0 0 - - - 0;
#X floatatom 117 374 5 0 0 0 - - - 0;
#X obj 29 218 metro 60;
#X obj 32 307 - 0;
#X obj 74 315 - 0;
#X obj 119 316 - 0;
#X obj 31 281 random 3;
#X obj 95 284 random 3;
#X obj 161 283 random 3;
#X floatatom 42 87 5 0 0 0 - - - 0;
#X floatatom 70 132 5 0 0 0 - - - 0;
#X floatatom 57 111 5 0 0 0 - - - 0;
#X floatatom 30 67 5 0 0 0 - - - 0;
#X text 43 628 Wireframe;
#X text 59 466 Random location;
#X text 59 187 Random size;
#X text 26 42 Color;
#X obj 173 521 random 10;
#X obj 5 673 sphere;
#X connect 0 0 1 0;
#X connect 1 0 4 0;
#X connect 2 0 3 0;
#X connect 3 0 36 0;
#X connect 4 0 5 0;
#X connect 5 0 36 0;
#X connect 6 0 5 1;
#X connect 7 0 8 0;
#X connect 8 0 6 0;
#X connect 9 0 15 0;
#X connect 10 0 11 0;
#X connect 11 0 13 0;
#X connect 12 0 14 0;
#X connect 13 0 5 2;
#X connect 14 0 5 3;
#X connect 15 0 7 0;
#X connect 15 0 10 0;
#X connect 15 0 35 0;
#X connect 16 0 4 1;
#X connect 17 0 20 0;
#X connect 18 0 4 2;
#X connect 19 0 4 3;
#X connect 20 0 24 0;
#X connect 20 0 25 0;
#X connect 20 0 26 0;
#X connect 21 0 16 0;
#X connect 22 0 18 0;
#X connect 23 0 19 0;
#X connect 24 0 21 0;
#X connect 25 0 22 0;
#X connect 26 0 23 0;
#X connect 27 0 1 2;
#X connect 28 0 1 4;
#X connect 29 0 1 3;
#X connect 30 0 1 1;
#X connect 35 0 12 0;
#X restore 495 171 pd;
#N canvas 208 233 450 300 (subpatch) 0;
#X obj 17 1 gemhead;
#X obj 17 159 colorRGB;
#X obj 19 627 tgl 19 0 empty empty empty 0 -10 0 12 #fcfcfc #000000 #000000 0 1;
#X msg 14 649 draw line;
#X obj 13 442 scaleXYZ;
#X obj 6 604 translateXYZ;
#X floatatom 17 573 5 0 0 0 - - - 0;
#X obj 26 521 random 10;
#X obj 25 549 - 5;
#X obj 31 465 tgl 19 0 empty empty empty 0 -10 0 12 #fcfcfc #000000 #000000 0 1;
#X obj 101 521 random 10;
#X obj 60 551 - 5;
#X obj 106 549 - 5;
#X floatatom 61 574 5 0 0 0 - - - 0;
#X floatatom 110 574 5 0 0 0 - - - 0;
#X obj 31 489 metro 60;
#X floatatom 31 374 5 0 0 0 - - - 0;
#X obj 35 186 tgl 19 0 empty empty empty 0 -10 0 12 #fcfcfc #000000 #000000 0 1;
#X floatatom 72 374 5 0 0 0 - - - 0;
#X floatatom 117 374 5 0 0 0 - - - 0;
#X obj 29 218 metro 60;
#X obj 32 307 - 0;
#X obj 74 315 - 0;
#X obj 119 316 - 0;
#X obj 31 281 random 3;
#X obj 95 284 random 3;
#X obj 161 283 random 3;
#X floatatom 42 87 5 0 0 0 - - - 0;
#X floatatom 70 132 5 0 0 0 - - - 0;
#X floatatom 57 111 5 0 0 0 - - - 0;
#X floatatom 30 67 5 0 0 0 - - - 0;
#X text 43 628 Wireframe;
#X text 59 466 Random location;
#X text 59 187 Random size;
#X text 26 42 Color;
#X obj 173 521 random 10;
#X obj 5 673 sphere;
#X connect 0 0 1 0;
#X connect 1 0 4 0;
#X connect 2 0 3 0;
#X connect 3 0 36 0;
#X connect 4 0 5 0;
#X connect 5 0 36 0;
#X connect 6 0 5 1;
#X connect 7 0 8 0;
#X connect 8 0 6 0;
#X connect 9 0 15 0;
#X connect 10 0 11 0;
#X connect 11 0 13 0;
#X connect 12 0 14 0;
#X connect 13 0 5 2;
#X connect 14 0 5 3;
#X connect 15 0 7 0;
#X connect 15 0 10 0;
#X connect 15 0 35 0;
#X connect 16 0 4 1;
#X connect 17 0 20 0;
#X connect 18 0 4 2;
#X connect 19 0 4 3;
#X connect 20 0 24 0;
#X connect 20 0 25 0;
#X connect 20 0 26 0;
#X connect 21 0 16 0;
#X connect 22 0 18 0;
#X connect 23 0 19 0;
#X connect 24 0 21 0;
#X connect 25 0 22 0;
#X connect 26 0 23 0;
#X connect 27 0 1 2;
#X connect 28 0 1 4;
#X connect 29 0 1 3;
#X connect 30 0 1 1;
#X connect 35 0 12 0;
#X restore 424 199 pd;
#N canvas 208 233 450 300 (subpatch) 0;
#X obj 17 1 gemhead;
#X obj 17 159 colorRGB;
#X obj 19 627 tgl 19 0 empty empty empty 0 -10 0 12 #fcfcfc #000000 #000000 0 1;
#X msg 14 649 draw line;
#X obj 13 442 scaleXYZ;
#X obj 6 604 translateXYZ;
#X floatatom 17 573 5 0 0 0 - - - 0;
#X obj 26 521 random 10;
#X obj 25 549 - 5;
#X obj 31 465 tgl 19 0 empty empty empty 0 -10 0 12 #fcfcfc #000000 #000000 0 1;
#X obj 101 521 random 10;
#X obj 60 551 - 5;
#X obj 106 549 - 5;
#X floatatom 61 574 5 0 0 0 - - - 0;
#X floatatom 110 574 5 0 0 0 - - - 0;
#X obj 31 489 metro 60;
#X floatatom 31 374 5 0 0 0 - - - 0;
#X obj 35 186 tgl 19 0 empty empty empty 0 -10 0 12 #fcfcfc #000000 #000000 0 1;
#X floatatom 72 374 5 0 0 0 - - - 0;
#X floatatom 117 374 5 0 0 0 - - - 0;
#X obj 29 218 metro 60;
#X obj 32 307 - 0;
#X obj 74 315 - 0;
#X obj 119 316 - 0;
#X obj 31 281 random 3;
#X obj 95 284 random 3;
#X obj 161 283 random 3;
#X floatatom 42 87 5 0 0 0 - - - 0;
#X floatatom 70 132 5 0 0 0 - - - 0;
#X floatatom 57 111 5 0 0 0 - - - 0;
#X floatatom 30 67 5 0 0 0 - - - 0;
#X text 43 628 Wireframe;
#X text 59 466 Random location;
#X text 59 187 Random size;
#X text 26 42 Color;
#X obj 173 521 random 10;
#X obj 5 673 sphere;
#X connect 0 0 1 0;
#X connect 1 0 4 0;
#X connect 2 0 3 0;
#X connect 3 0 36 0;
#X connect 4 0 5 0;
#X connect 5 0 36 0;
#X connect 6 0 5 1;
#X connect 7 0 8 0;
#X connect 8 0 6 0;
#X connect 9 0 15 0;
#X connect 10 0 11 0;
#X connect 11 0 13 0;
#X connect 12 0 14 0;
#X connect 13 0 5 2;
#X connect 14 0 5 3;
#X connect 15 0 7 0;
#X connect 15 0 10 0;
#X connect 15 0 35 0;
#X connect 16 0 4 1;
#X connect 17 0 20 0;
#X connect 18 0 4 2;
#X connect 19 0 4 3;
#X connect 20 0 24 0;
#X connect 20 0 25 0;
#X connect 20 0 26 0;
#X connect 21 0 16 0;
#X connect 22 0 18 0;
#X connect 23 0 19 0;
#X connect 24 0 21 0;
#X connect 25 0 22 0;
#X connect 26 0 23 0;
#X connect 27 0 1 2;
#X connect 28 0 1 4;
#X connect 29 0 1 3;
#X connect 30 0 1 1;
#X connect 35 0 12 0;
#X restore 495 200 pd;
#N canvas 208 233 450 300 (subpatch) 0;
#X obj 17 1 gemhead;
#X obj 17 159 colorRGB;
#X obj 19 627 tgl 19 0 empty empty empty 0 -10 0 12 #fcfcfc #000000 #000000 0 1;
#X msg 14 649 draw line;
#X obj 13 442 scaleXYZ;
#X obj 6 604 translateXYZ;
#X floatatom 17 573 5 0 0 0 - - - 0;
#X obj 26 521 random 10;
#X obj 25 549 - 5;
#X obj 31 465 tgl 19 0 empty empty empty 0 -10 0 12 #fcfcfc #000000 #000000 0 1;
#X obj 101 521 random 10;
#X obj 60 551 - 5;
#X obj 106 549 - 5;
#X floatatom 61 574 5 0 0 0 - - - 0;
#X floatatom 110 574 5 0 0 0 - - - 0;
#X obj 31 489 metro 60;
#X floatatom 31 374 5 0 0 0 - - - 0;
#X obj 35 186 tgl 19 0 empty empty empty 0 -10 0 12 #fcfcfc #000000 #000000 0 1;
#X floatatom 72 374 5 0 0 0 - - - 0;
#X floatatom 117 374 5 0 0 0 - - - 0;
#X obj 29 218 metro 60;
#X obj 32 307 - 0;
#X obj 74 315 - 0;
#X obj 119 316 - 0;
#X obj 31 281 random 3;
#X obj 95 284 random 3;
#X obj 161 283 random 3;
#X floatatom 42 87 5 0 0 0 - - - 0;
#X floatatom 70 132 5 0 0 0 - - - 0;
#X floatatom 57 111 5 0 0 0 - - - 0;
#X floatatom 30 67 5 0 0 0 - - - 0;
#X text 43 628 Wireframe;
#X text 59 466 Random location;
#X text 59 187 Random size;
#X text 26 42 Color;
#X obj 173 521 random 10;
#X obj 5 673 sphere;
#X connect 0 0 1 0;
#X connect 1 0 4 0;
#X connect 2 0 3 0;
#X connect 3 0 36 0;
#X connect 4 0 5 0;
#X connect 5 0 36 0;
#X connect 6 0 5 1;
#X connect 7 0 8 0;
#X connect 8 0 6 0;
#X connect 9 0 15 0;
#X connect 10 0 11 0;
#X connect 11 0 13 0;
#X connect 12 0 14 0;
#X connect 13 0 5 2;
#X connect 14 0 5 3;
#X connect 15 0 7 0;
#X connect 15 0 10 0;
#X connect 15 0 35 0;
#X connect 16 0 4 1;
#X connect 17 0 20 0;
#X connect 18 0 4 2;
#X connect 19 0 4 3;
#X connect 20 0 24 0;
#X connect 20 0 25 0;
#X connect 20 0 26 0;
#X connect 21 0 16 0;
#X connect 22 0 18 0;
#X connect 23 0 19 0;
#X connect 24 0 21 0;
#X connect 25 0 22 0;
#X connect 26 0 23 0;
#X connect 27 0 1 2;
#X connect 28 0 1 4;
#X connect 29 0 1 3;
#X connect 30 0 1 1;
#X connect 35 0 12 0;
#X restore 425 229 pd;
#N canvas 208 233 450 300 (subpatch) 0;
#X obj 17 1 gemhead;
#X obj 17 159 colorRGB;
#X obj 19 627 tgl 19 0 empty empty empty 0 -10 0 12 #fcfcfc #000000 #000000 0 1;
#X msg 14 649 draw line;
#X obj 13 442 scaleXYZ;
#X obj 6 604 translateXYZ;
#X floatatom 17 573 5 0 0 0 - - - 0;
#X obj 26 521 random 10;
#X obj 25 549 - 5;
#X obj 31 465 tgl 19 0 empty empty empty 0 -10 0 12 #fcfcfc #000000 #000000 0 1;
#X obj 101 521 random 10;
#X obj 60 551 - 5;
#X obj 106 549 - 5;
#X floatatom 61 574 5 0 0 0 - - - 0;
#X floatatom 110 574 5 0 0 0 - - - 0;
#X obj 31 489 metro 60;
#X floatatom 31 374 5 0 0 0 - - - 0;
#X obj 35 186 tgl 19 0 empty empty empty 0 -10 0 12 #fcfcfc #000000 #000000 0 1;
#X floatatom 72 374 5 0 0 0 - - - 0;
#X floatatom 117 374 5 0 0 0 - - - 0;
#X obj 29 218 metro 60;
#X obj 32 307 - 0;
#X obj 74 315 - 0;
#X obj 119 316 - 0;
#X obj 31 281 random 3;
#X obj 95 284 random 3;
#X obj 161 283 random 3;
#X floatatom 42 87 5 0 0 0 - - - 0;
#X floatatom 70 132 5 0 0 0 - - - 0;
#X floatatom 57 111 5 0 0 0 - - - 0;
#X floatatom 30 67 5 0 0 0 - - - 0;
#X text 43 628 Wireframe;
#X text 59 466 Random location;
#X text 59 187 Random size;
#X text 26 42 Color;
#X obj 173 521 random 10;
#X obj 5 673 sphere;
#X connect 0 0 1 0;
#X connect 1 0 4 0;
#X connect 2 0 3 0;
#X connect 3 0 36 0;
#X connect 4 0 5 0;
#X connect 5 0 36 0;
#X connect 6 0 5 1;
#X connect 7 0 8 0;
#X connect 8 0 6 0;
#X connect 9 0 15 0;
#X connect 10 0 11 0;
#X connect 11 0 13 0;
#X connect 12 0 14 0;
#X connect 13 0 5 2;
#X connect 14 0 5 3;
#X connect 15 0 7 0;
#X connect 15 0 10 0;
#X connect 15 0 35 0;
#X connect 16 0 4 1;
#X connect 17 0 20 0;
#X connect 18 0 4 2;
#X connect 19 0 4 3;
#X connect 20 0 24 0;
#X connect 20 0 25 0;
#X connect 20 0 26 0;
#X connect 21 0 16 0;
#X connect 22 0 18 0;
#X connect 23 0 19 0;
#X connect 24 0 21 0;
#X connect 25 0 22 0;
#X connect 26 0 23 0;
#X connect 27 0 1 2;
#X connect 28 0 1 4;
#X connect 29 0 1 3;
#X connect 30 0 1 1;
#X connect 35 0 12 0;
#X restore 496 230 pd;
#X text 144 108 CUBES;
#X text 441 103 SPHERES;
#X text 36 52 OPEN;
#X text 34 80 CLOSE;
#X connect 1 0 4 0;
#X connect 2 0 4 0;
#X connect 3 0 4 0;
#X connect 5 0 1 0;
#X connect 6 0 2 0;
