#N canvas 612 247 716 434 12;
#X obj 36 359 *~;
#X obj 54 148 vsl 19 162 0 127 0 0 empty empty empty 0 -9 0 12 #fcfcfc #000000 #000000 0 1;
#X obj 38 17 adc~ 1 2 3 4 5 6, f 83;
#X obj 151 359 *~;
#X obj 169 148 vsl 19 162 0 127 0 0 empty empty empty 0 -9 0 12 #fcfcfc #000000 #000000 0 1;
#X obj 267 358 *~;
#X obj 286 140 vsl 19 162 0 127 0 0 empty empty empty 0 -9 0 12 #fcfcfc #000000 #000000 0 1;
#X obj 36 387 dac~ 1 2 3 4 5 6, f 83;
#X obj 379 356 *~;
#X obj 398 138 vsl 19 162 0 127 0 0 empty empty empty 0 -9 0 12 #fcfcfc #000000 #000000 0 1;
#X obj 498 357 *~;
#X obj 517 139 vsl 19 162 0 127 0 0 empty empty empty 0 -9 0 12 #fcfcfc #000000 #000000 0 1;
#X obj 613 361 *~;
#X obj 632 143 vsl 19 162 0 127 0 0 empty empty empty 0 -9 0 12 #fcfcfc #000000 #000000 0 1;
#X connect 0 0 7 0;
#X connect 1 0 0 1;
#X connect 2 0 0 0;
#X connect 2 1 3 0;
#X connect 2 2 5 0;
#X connect 2 3 8 0;
#X connect 2 4 10 0;
#X connect 2 5 12 0;
#X connect 3 0 7 1;
#X connect 4 0 3 1;
#X connect 5 0 7 2;
#X connect 6 0 5 1;
#X connect 8 0 7 3;
#X connect 9 0 8 1;
#X connect 10 0 7 4;
#X connect 11 0 10 1;
#X connect 12 0 7 5;
#X connect 13 0 12 1;
