#N canvas 557 165 450 300 12;
#X declare -lib Gem;
#X obj 6 7 declare -lib Gem;
#X obj 15 138 gemwin;
#X msg 12 33 create \, 1;
#X msg 36 62 0 \, destroy;
#X msg 61 91 dimen 640 480;
#X obj 203 25 gemhead;
#X obj 241 199 newWave;
#X msg 255 59 draw line;
#X floatatom 290 98 5 0 0 0 - - - 0;
#X floatatom 283 121 5 0 0 0 - - - 0;
#X floatatom 299 148 5 0 0 0 - - - 0;
#X obj 359 22 osc~;
#X obj 366 94 snapshot~;
#X obj 409 20 tgl 19 0 empty empty empty 0 -10 0 12 #fcfcfc #000000 #000000 0 1;
#X obj 381 60 metro 1;
#X connect 2 0 1 0;
#X connect 3 0 1 0;
#X connect 4 0 1 0;
#X connect 5 0 6 0;
#X connect 7 0 6 0;
#X connect 8 0 6 1;
#X connect 9 0 6 2;
#X connect 10 0 6 3;
#X connect 11 0 12 0;
#X connect 12 0 8 0;
#X connect 13 0 14 0;
#X connect 14 0 12 0;
