#N canvas 366 155 1097 486 12;
#X floatatom 23 255 5 0 0 0 - - - 0;
#X obj 36 396 osc~;
#X obj 87 226 osc~;
#X obj 52 303 *~;
#X floatatom 100 253 5 0 0 0 - - - 0;
#X obj 36 359 +~;
#X obj 36 420 *~ 0.5;
#X obj 36 444 dac~;
#X obj 81 189 osc~;
#X obj 29 29 tgl 19 0 empty empty empty 0 -10 0 12 #fcfcfc #000000 #000000 0 1;
#X obj 14 110 random 300;
#X obj 226 63 metro 0.001;
#X obj 290 175 osc~;
#X obj 238 15 tgl 19 0 empty empty empty 0 -10 0 12 #fcfcfc #000000 #000000 0 1;
#X obj 223 96 random 300;
#X floatatom 199 227 5 0 0 0 - - - 0;
#X obj 208 392 osc~;
#X obj 259 222 osc~;
#X obj 224 299 *~;
#X floatatom 272 249 5 0 0 0 - - - 0;
#X obj 208 355 +~;
#X obj 208 416 *~ 0.5;
#X obj 208 440 dac~;
#X floatatom 426 222 5 0 0 0 - - - 0;
#X obj 435 387 osc~;
#X obj 486 217 osc~;
#X obj 451 294 *~;
#X floatatom 499 244 5 0 0 0 - - - 0;
#X obj 435 350 +~;
#X obj 435 411 *~ 0.5;
#X obj 416 68 metro 0.001;
#X obj 480 180 osc~;
#X obj 428 20 tgl 19 0 empty empty empty 0 -10 0 12 #fcfcfc #000000 #000000 0 1;
#X obj 413 101 random 300;
#X obj 625 54 metro 0.001;
#X obj 689 166 osc~;
#X obj 637 6 tgl 19 0 empty empty empty 0 -10 0 12 #fcfcfc #000000 #000000 0 1;
#X obj 622 87 random 300;
#X floatatom 598 218 5 0 0 0 - - - 0;
#X obj 607 383 osc~;
#X obj 658 213 osc~;
#X obj 623 290 *~;
#X floatatom 671 240 5 0 0 0 - - - 0;
#X obj 607 346 +~;
#X obj 607 407 *~ 0.5;
#X obj 443 447 dac~;
#X obj 607 441 dac~;
#X obj 17 77 metro 0.01;
#X connect 0 0 5 0;
#X connect 1 0 6 0;
#X connect 2 0 3 0;
#X connect 3 0 5 1;
#X connect 4 0 3 1;
#X connect 5 0 1 0;
#X connect 6 0 7 0;
#X connect 8 0 2 0;
#X connect 9 0 47 0;
#X connect 10 0 8 0;
#X connect 11 0 14 0;
#X connect 12 0 17 0;
#X connect 13 0 11 0;
#X connect 14 0 12 0;
#X connect 15 0 20 0;
#X connect 16 0 21 0;
#X connect 17 0 18 0;
#X connect 18 0 20 1;
#X connect 19 0 18 1;
#X connect 20 0 16 0;
#X connect 21 0 22 0;
#X connect 23 0 28 0;
#X connect 24 0 29 0;
#X connect 25 0 26 0;
#X connect 26 0 28 1;
#X connect 27 0 26 1;
#X connect 28 0 24 0;
#X connect 29 0 45 0;
#X connect 30 0 33 0;
#X connect 31 0 25 0;
#X connect 32 0 30 0;
#X connect 33 0 31 0;
#X connect 34 0 37 0;
#X connect 35 0 40 0;
#X connect 36 0 34 0;
#X connect 37 0 35 0;
#X connect 38 0 43 0;
#X connect 39 0 44 0;
#X connect 40 0 41 0;
#X connect 41 0 43 1;
#X connect 42 0 41 1;
#X connect 43 0 39 0;
#X connect 44 0 46 0;
#X connect 47 0 10 0;
