#N canvas 499 160 699 578 12;
#X obj 44 64 noise~;
#X obj 49 115 *~;
#X obj 74 164 *~ 0.5;
#X obj 73 241 dac~;
#X floatatom 113 24 5 0 0 0 - - - 0;
#X obj 102 67 osc~;
#X connect 0 0 1 0;
#X connect 1 0 2 0;
#X connect 2 0 3 0;
#X connect 2 0 3 1;
#X connect 4 0 5 0;
#X connect 5 0 1 1;
