#N canvas 503 26 908 785 12;
#X declare -lib Gem;
#X obj 29 20 declare -lib Gem;
#X msg 30 55 create \, 1;
#X msg 42 82 0 \, destroy;
#X msg 52 111 dimen 640 480;
#X obj 30 167 gemwin;
#X obj 258 14 gemhead;
#X obj 259 77 colorRGB;
#X obj 194 469 cube;
#X obj 198 339 tgl 19 0 empty empty empty 0 -10 0 12 #fcfcfc #000000 #000000 0 1;
#X msg 165 399 draw line;
#X obj 217 430 scaleXYZ;
#X obj 399 445 translateXYZ;
#X floatatom 373 413 5 0 0 0 - - - 0;
#X obj 340 144 random 10;
#X obj 458 236 - 5;
#X obj 334 80 tgl 19 0 empty empty empty 0 -10 0 12 #fcfcfc #000000 #000000 0 1;
#X obj 412 144 random 10;
#X obj 491 236 - 5;
#X obj 486 144 random 10;
#X obj 525 236 - 5;
#X floatatom 418 414 5 0 0 0 - - - 0;
#X floatatom 464 413 5 0 0 0 - - - 0;
#X obj 332 115 metro 60;
#X floatatom 242 353 5 0 0 0 - - - 0;
#X obj 273 108 tgl 19 0 empty empty empty 0 -10 0 12 #fcfcfc #000000 #000000 0 1;
#X floatatom 291 353 5 0 0 0 - - - 0;
#X floatatom 335 355 5 0 0 0 - - - 0;
#X obj 268 146 metro 60;
#X obj 252 291 - 0;
#X obj 287 291 - 0;
#X obj 323 291 - 0;
#X obj 259 234 random 3;
#X obj 325 234 random 3;
#X obj 392 235 random 3;
#X obj 755 669 cube;
#X obj 1223 682 cube;
#X obj 245 516 gemhead;
#X obj 245 577 colorRGB;
#X obj 167 930 scaleXYZ;
#X obj 295 965 rotateXYZ;
#X obj 535 943 translateXYZ;
#X floatatom 437 719 5 0 0 0 - - - 0;
#X obj 344 626 random 10;
#X obj 345 656 - 5;
#X obj 344 508 tgl 19 0 empty empty empty 0 -10 0 12 #fcfcfc #000000 #000000 0 1;
#X obj 413 626 random 10;
#X obj 414 656 - 5;
#X obj 489 626 random 10;
#X obj 490 656 - 5;
#X floatatom 479 720 5 0 0 0 - - - 0;
#X floatatom 523 720 5 0 0 0 - - - 0;
#X obj 344 587 metro 60;
#X floatatom 338 851 5 0 0 0 - - - 0;
#X obj 245 640 tgl 19 0 empty empty empty 0 -10 0 12 #fcfcfc #000000 #000000 0 1;
#X floatatom 380 852 5 0 0 0 - - - 0;
#X floatatom 424 852 5 0 0 0 - - - 0;
#X obj 245 719 metro 60;
#X obj 246 788 - 0;
#X obj 315 788 - 0;
#X obj 391 788 - 0;
#X obj 245 758 random 3;
#X obj 315 757 random 3;
#X obj 387 757 random 3;
#X obj 226 1159 cube;
#X obj 211 809 tgl 19 0 empty empty empty 0 -10 0 12 #fcfcfc #000000 #000000 0 1;
#X msg 210 846 draw line;
#X obj 692 624 gemhead;
#X obj 692 685 colorRGB;
#X obj 614 1038 scaleXYZ;
#X obj 742 1073 rotateXYZ;
#X obj 982 1051 translateXYZ;
#X floatatom 884 827 5 0 0 0 - - - 0;
#X obj 791 734 random 10;
#X obj 792 764 - 5;
#X obj 791 616 tgl 19 0 empty empty empty 0 -10 0 12 #fcfcfc #000000 #000000 0 1;
#X obj 860 734 random 10;
#X obj 861 764 - 5;
#X obj 936 734 random 10;
#X obj 937 764 - 5;
#X floatatom 926 828 5 0 0 0 - - - 0;
#X floatatom 970 828 5 0 0 0 - - - 0;
#X obj 791 695 metro 60;
#X floatatom 785 959 5 0 0 0 - - - 0;
#X obj 692 748 tgl 19 0 empty empty empty 0 -10 0 12 #fcfcfc #000000 #000000 0 1;
#X floatatom 827 960 5 0 0 0 - - - 0;
#X floatatom 871 960 5 0 0 0 - - - 0;
#X obj 692 827 metro 60;
#X obj 693 896 - 0;
#X obj 762 896 - 0;
#X obj 838 896 - 0;
#X obj 692 866 random 3;
#X obj 762 865 random 3;
#X obj 834 865 random 3;
#X obj 673 1267 cube;
#X obj 658 917 tgl 19 0 empty empty empty 0 -10 0 12 #fcfcfc #000000 #000000 0 1;
#X msg 657 954 draw line;
#X obj 1164 659 gemhead;
#X obj 1164 720 colorRGB;
#X obj 1086 1073 scaleXYZ;
#X obj 1214 1108 rotateXYZ;
#X obj 1454 1086 translateXYZ;
#X floatatom 1356 862 5 0 0 0 - - - 0;
#X obj 1263 769 random 10;
#X obj 1264 799 - 5;
#X obj 1263 651 tgl 19 0 empty empty empty 0 -10 0 12 #fcfcfc #000000 #000000 0 1;
#X obj 1332 769 random 10;
#X obj 1333 799 - 5;
#X obj 1408 769 random 10;
#X obj 1409 799 - 5;
#X floatatom 1398 863 5 0 0 0 - - - 0;
#X floatatom 1442 863 5 0 0 0 - - - 0;
#X obj 1263 730 metro 60;
#X floatatom 1257 994 5 0 0 0 - - - 0;
#X obj 1164 783 tgl 19 0 empty empty empty 0 -10 0 12 #fcfcfc #000000 #000000 0 1;
#X floatatom 1299 995 5 0 0 0 - - - 0;
#X floatatom 1343 995 5 0 0 0 - - - 0;
#X obj 1164 862 metro 60;
#X obj 1165 931 - 0;
#X obj 1234 931 - 0;
#X obj 1310 931 - 0;
#X obj 1164 901 random 3;
#X obj 1234 900 random 3;
#X obj 1306 900 random 3;
#X obj 1145 1302 cube;
#X obj 1130 952 tgl 19 0 empty empty empty 0 -10 0 12 #fcfcfc #000000 #000000 0 1;
#X msg 1129 989 draw line;
#X floatatom 313 39 5 0 0 0 - - - 0;
#X floatatom 403 40 5 0 0 0 - - - 0;
#X floatatom 359 40 5 0 0 0 - - - 0;
#X floatatom 269 39 5 0 0 0 - - - 0;
#X floatatom 148 531 5 0 0 0 - - - 0;
#X floatatom 303 555 5 0 0 0 - - - 0;
#X floatatom 290 531 5 0 0 0 - - - 0;
#X floatatom 190 530 5 0 0 0 - - - 0;
#X floatatom 720 576 5 0 0 0 - - - 0;
#X floatatom 647 653 5 0 0 0 - - - 0;
#X floatatom 645 627 5 0 0 0 - - - 0;
#X text 122 337 Wireframe;
#X connect 1 0 4 0;
#X connect 2 0 4 0;
#X connect 3 0 4 0;
#X connect 5 0 6 0;
#X connect 6 0 10 0;
#X connect 8 0 9 0;
#X connect 9 0 7 0;
#X connect 10 0 11 0;
#X connect 11 0 7 1;
#X connect 12 0 11 1;
#X connect 13 0 14 0;
#X connect 14 0 12 0;
#X connect 15 0 22 0;
#X connect 16 0 17 0;
#X connect 17 0 20 0;
#X connect 18 0 19 0;
#X connect 19 0 21 0;
#X connect 20 0 11 2;
#X connect 21 0 11 3;
#X connect 22 0 13 0;
#X connect 22 0 16 0;
#X connect 22 0 18 0;
#X connect 23 0 10 1;
#X connect 24 0 27 0;
#X connect 25 0 10 2;
#X connect 26 0 10 3;
#X connect 27 0 31 0;
#X connect 27 0 32 0;
#X connect 27 0 33 0;
#X connect 28 0 23 0;
#X connect 29 0 25 0;
#X connect 30 0 26 0;
#X connect 31 0 28 0;
#X connect 32 0 29 0;
#X connect 33 0 30 0;
#X connect 36 0 37 0;
#X connect 37 0 38 0;
#X connect 38 0 40 0;
#X connect 39 0 63 0;
#X connect 40 0 39 0;
#X connect 41 0 40 1;
#X connect 42 0 43 0;
#X connect 43 0 41 0;
#X connect 44 0 51 0;
#X connect 45 0 46 0;
#X connect 46 0 49 0;
#X connect 47 0 48 0;
#X connect 48 0 50 0;
#X connect 49 0 40 2;
#X connect 50 0 40 3;
#X connect 51 0 42 0;
#X connect 51 0 45 0;
#X connect 51 0 47 0;
#X connect 52 0 38 1;
#X connect 53 0 56 0;
#X connect 54 0 38 2;
#X connect 55 0 38 3;
#X connect 56 0 60 0;
#X connect 56 0 61 0;
#X connect 56 0 62 0;
#X connect 57 0 52 0;
#X connect 58 0 54 0;
#X connect 59 0 55 0;
#X connect 60 0 57 0;
#X connect 61 0 58 0;
#X connect 62 0 59 0;
#X connect 64 0 65 0;
#X connect 65 0 63 0;
#X connect 66 0 67 0;
#X connect 67 0 68 0;
#X connect 68 0 70 0;
#X connect 69 0 93 0;
#X connect 70 0 69 0;
#X connect 71 0 70 1;
#X connect 72 0 73 0;
#X connect 73 0 71 0;
#X connect 74 0 81 0;
#X connect 75 0 76 0;
#X connect 76 0 79 0;
#X connect 77 0 78 0;
#X connect 78 0 80 0;
#X connect 79 0 70 2;
#X connect 80 0 70 3;
#X connect 81 0 72 0;
#X connect 81 0 75 0;
#X connect 81 0 77 0;
#X connect 82 0 68 1;
#X connect 83 0 86 0;
#X connect 84 0 68 2;
#X connect 85 0 68 3;
#X connect 86 0 90 0;
#X connect 86 0 91 0;
#X connect 86 0 92 0;
#X connect 87 0 82 0;
#X connect 88 0 84 0;
#X connect 89 0 85 0;
#X connect 90 0 87 0;
#X connect 91 0 88 0;
#X connect 92 0 89 0;
#X connect 94 0 95 0;
#X connect 95 0 93 0;
#X connect 96 0 97 0;
#X connect 97 0 98 0;
#X connect 98 0 100 0;
#X connect 99 0 123 0;
#X connect 100 0 99 0;
#X connect 101 0 100 1;
#X connect 102 0 103 0;
#X connect 103 0 101 0;
#X connect 104 0 111 0;
#X connect 105 0 106 0;
#X connect 106 0 109 0;
#X connect 107 0 108 0;
#X connect 108 0 110 0;
#X connect 109 0 100 2;
#X connect 110 0 100 3;
#X connect 111 0 102 0;
#X connect 111 0 105 0;
#X connect 111 0 107 0;
#X connect 112 0 98 1;
#X connect 113 0 116 0;
#X connect 114 0 98 2;
#X connect 115 0 98 3;
#X connect 116 0 120 0;
#X connect 116 0 121 0;
#X connect 116 0 122 0;
#X connect 117 0 112 0;
#X connect 118 0 114 0;
#X connect 119 0 115 0;
#X connect 120 0 117 0;
#X connect 121 0 118 0;
#X connect 122 0 119 0;
#X connect 124 0 125 0;
#X connect 125 0 123 0;
#X connect 126 0 6 2;
#X connect 127 0 6 4;
#X connect 128 0 6 3;
#X connect 129 0 6 1;
#X connect 130 0 37 3;
#X connect 131 0 37 2;
#X connect 132 0 37 1;
#X connect 133 0 37 4;
#X connect 134 0 67 3;
#X connect 135 0 67 2;
#X connect 136 0 67 1;
